<?xml version="1.0" encoding="iso-8859-1"?>
<!-- Generator: Adobe Illustrator 19.0.0, SVG Export Plug-In . SVG Version: 6.00 Build 0)  -->
<svg version="1.1" id="Layer_1" xmlns="http://www.w3.org/2000/svg" xmlns:xlink="http://www.w3.org/1999/xlink" x="0px" y="0px"
	 viewBox="0 0 511.999 511.999" style="enable-background:new 0 0 511.999 511.999;" xml:space="preserve">
<g>
	<g>
		<path d="M355.419,411.897V10.199C355.419,4.567,350.852,0,345.22,0s-10.199,4.567-10.199,10.199v355.92
			c-9.241-8.872-21.232-15.483-35.362-19.263c-23.309-6.236-49.787-4.019-74.556,6.239c0,0,0,0,0,0.001
			c-24.768,10.259-45.058,27.415-57.131,48.307c-12.581,21.77-14.855,44.997-6.402,65.404c8.453,20.407,26.484,35.223,50.775,41.721
			c8.677,2.321,17.793,3.471,27.097,3.471c15.689,0,31.911-3.27,47.459-9.71c24.768-10.26,45.058-27.416,57.131-48.308
			C352.012,440.175,355.838,425.784,355.419,411.897z M326.371,443.776c-9.84,17.028-26.63,31.117-47.276,39.669
			c-13.391,5.546-27.042,8.181-39.836,8.18c-27.027-0.002-50.202-11.756-58.844-32.621c-12.733-30.741,10.815-69.797,52.495-87.06
			c20.646-8.552,42.481-10.461,61.48-5.38c18.02,4.821,31.232,15.411,37.201,29.823
			C337.559,410.793,335.706,427.625,326.371,443.776z"/>
	</g>
</g>
<g>
	<g>
		<g>
			<path d="M246.047,387.733c-2.156-5.204-8.123-7.676-13.326-5.519c-4.475,1.854-8.78,4.089-12.797,6.643
				c-4.754,3.023-6.156,9.326-3.134,14.08c1.944,3.056,5.243,4.727,8.616,4.727c1.872,0,3.766-0.515,5.463-1.595
				c3.023-1.922,6.272-3.607,9.658-5.011C245.732,398.903,248.203,392.937,246.047,387.733z"/>
			<path d="M209.542,410.01c-4.898-2.779-11.124-1.061-13.904,3.837c-8.104,14.279-9.49,29.572-3.902,43.062
				c1.628,3.928,5.425,6.299,9.427,6.299c1.3,0,2.623-0.251,3.899-0.781c5.203-2.155,7.676-8.12,5.52-13.325
				c-3.128-7.551-2.135-16.497,2.798-25.187C216.158,419.016,214.441,412.79,209.542,410.01z"/>
		</g>
	</g>
</g>
<g>
</g>
<g>
</g>
<g>
</g>
<g>
</g>
<g>
</g>
<g>
</g>
<g>
</g>
<g>
</g>
<g>
</g>
<g>
</g>
<g>
</g>
<g>
</g>
<g>
</g>
<g>
</g>
<g>
</g>
</svg>
