<?xml version="1.0" encoding="iso-8859-1"?>
<!-- Generator: Adobe Illustrator 19.0.0, SVG Export Plug-In . SVG Version: 6.00 Build 0)  -->
<svg version="1.1" id="Layer_1" xmlns="http://www.w3.org/2000/svg" xmlns:xlink="http://www.w3.org/1999/xlink" x="0px" y="0px"
	 viewBox="0 0 511.999 511.999" style="enable-background:new 0 0 511.999 511.999;" xml:space="preserve">
<g>
	<g>
		<path d="M321.404,225.855v-39.654c19.236,3.413,35.631,16.34,43.293,34.863c1.577,3.813,5.296,6.301,9.424,6.301
			c4.126,0,7.846-2.487,9.424-6.3c3.929-9.496,5.92-19.553,5.92-29.895c0-39.694-29.712-72.556-68.059-77.573V73.291
			c19.235,3.41,35.63,16.339,43.291,34.861c1.577,3.813,5.296,6.301,9.424,6.301c4.126,0,7.846-2.486,9.424-6.3
			c3.929-9.496,5.92-19.553,5.92-29.895C389.465,35.107,354.358,0,311.206,0c-5.632,0-10.199,4.567-10.199,10.199v355.92
			c-9.241-8.872-21.232-15.483-35.362-19.263c-23.308-6.236-49.787-4.019-74.557,6.239c-24.768,10.26-45.058,27.416-57.131,48.308
			c-12.581,21.77-14.854,44.997-6.402,65.404c8.453,20.407,26.485,35.223,50.775,41.721c8.677,2.321,17.793,3.471,27.096,3.471
			c15.689,0,31.911-3.27,47.459-9.71c24.768-10.26,45.058-27.416,57.131-48.308c7.979-13.805,11.805-28.198,11.386-42.085V298.461
			c19.235,3.41,35.63,16.339,43.291,34.861c1.577,3.813,5.296,6.301,9.424,6.301c4.126,0,7.846-2.486,9.424-6.3
			c3.929-9.496,5.92-19.553,5.92-29.895C389.463,263.734,359.75,230.872,321.404,225.855z M321.405,21.298
			c26.812,4.788,47.288,28.109,47.657,56.191c-12.318-13.536-29.127-22.434-47.657-24.84V21.298z M321.405,134.21
			c26.812,4.788,47.288,28.109,47.657,56.191c-12.318-13.536-29.127-22.434-47.657-24.84V134.21z M292.358,443.776
			c-9.84,17.028-26.63,31.117-47.276,39.669c-20.645,8.552-42.48,10.461-61.479,5.38c-18.02-4.821-31.232-15.411-37.201-29.823
			c-5.969-14.41-4.116-31.241,5.218-47.392c9.84-17.028,26.63-31.117,47.276-39.669c20.646-8.552,42.479-10.461,61.479-5.38
			c18.02,4.821,31.232,15.411,37.201,29.823C303.545,410.793,301.692,427.625,292.358,443.776z M321.405,277.818v-31.349
			c26.813,4.787,47.289,28.108,47.657,56.19C356.744,289.123,339.935,280.224,321.405,277.818z"/>
	</g>
</g>
<g>
	<g>
		<g>
			<path d="M174.996,410.01c-4.898-2.779-11.123-1.062-13.904,3.837c-8.103,14.279-9.489,29.572-3.902,43.062
				c1.628,3.928,5.425,6.299,9.427,6.299c1.3,0,2.622-0.251,3.9-0.781c5.203-2.155,7.675-8.12,5.52-13.325
				c-3.129-7.551-2.136-16.497,2.797-25.187C181.612,419.016,179.895,412.79,174.996,410.01z"/>
			<path d="M211.5,387.733c-2.155-5.204-8.123-7.675-13.325-5.519c-4.476,1.854-8.781,4.089-12.798,6.643
				c-4.753,3.023-6.156,9.326-3.133,14.08c1.943,3.056,5.243,4.727,8.616,4.727c1.872,0,3.766-0.515,5.463-1.595
				c3.022-1.921,6.271-3.607,9.658-5.011C211.184,398.903,213.656,392.937,211.5,387.733z"/>
		</g>
	</g>
</g>
<g>
</g>
<g>
</g>
<g>
</g>
<g>
</g>
<g>
</g>
<g>
</g>
<g>
</g>
<g>
</g>
<g>
</g>
<g>
</g>
<g>
</g>
<g>
</g>
<g>
</g>
<g>
</g>
<g>
</g>
</svg>
