<?xml version="1.0" encoding="iso-8859-1"?>
<!-- Generator: Adobe Illustrator 19.0.0, SVG Export Plug-In . SVG Version: 6.00 Build 0)  -->
<svg version="1.1" id="Layer_1" xmlns="http://www.w3.org/2000/svg" xmlns:xlink="http://www.w3.org/1999/xlink" x="0px" y="0px"
	 viewBox="0 0 512 512" style="enable-background:new 0 0 512 512;" xml:space="preserve">
<g>
	<g>
		<path d="M421.227,0H90.773C40.72,0,0,40.72,0,90.773v330.454C0,471.28,40.72,512,90.773,512h330.454
			C471.28,512,512,471.28,512,421.227V90.773C512,40.72,471.28,0,421.227,0z M491.602,421.227c0,38.805-31.57,70.375-70.375,70.375
			H90.773c-38.805,0-70.374-31.57-70.374-70.375V90.773c0-38.805,31.57-70.375,70.374-70.375h330.454
			c38.805,0,70.375,31.57,70.375,70.375V421.227z"/>
	</g>
</g>
<g>
	<g>
		<path d="M431.597,36.717h-20.569c-5.633,0-10.199,4.566-10.199,10.199c0,5.633,4.566,10.199,10.199,10.199h20.569
			c5.632,0,10.199-4.566,10.199-10.199C441.796,41.283,437.23,36.717,431.597,36.717z"/>
	</g>
</g>
<g>
	<g>
		<path d="M368.191,36.717H80.403c-5.633,0-10.199,4.566-10.199,10.199c0,5.633,4.566,10.199,10.199,10.199h287.788
			c5.633,0,10.199-4.566,10.199-10.199C378.39,41.283,373.824,36.717,368.191,36.717z"/>
	</g>
</g>
<g>
	<g>
		<path d="M393.737,272.188l-108.5-160.442c-6.573-9.72-17.503-15.523-29.237-15.523s-22.664,5.802-29.237,15.523l-108.5,160.442
			c-7.332,10.844-8.075,24.762-1.936,36.323c6.139,11.561,18.083,18.743,31.173,18.743h217c13.09,0,25.035-7.182,31.173-18.743
			C401.812,296.95,401.069,283.032,393.737,272.188z M377.657,298.946c-2.63,4.954-7.548,7.911-13.157,7.911h-217
			c-5.609,0-10.527-2.957-13.157-7.911s-2.324-10.685,0.817-15.33l108.5-160.442c2.816-4.164,7.313-6.552,12.34-6.552
			c5.027,0,9.524,2.388,12.34,6.552l108.5,160.442C379.982,288.261,380.286,293.992,377.657,298.946z"/>
	</g>
</g>
<g>
	<g>
		<path d="M361.358,339.168H150.642c-21.217,0-38.48,17.262-38.48,38.48s17.262,38.48,38.48,38.48h210.716
			c21.218,0,38.48-17.262,38.48-38.48S382.575,339.168,361.358,339.168z M361.358,395.729H150.642
			c-9.971,0-18.081-8.111-18.081-18.081s8.111-18.081,18.081-18.081h210.716c9.97,0,18.081,8.111,18.081,18.081
			S371.327,395.729,361.358,395.729z"/>
	</g>
</g>
<g>
</g>
<g>
</g>
<g>
</g>
<g>
</g>
<g>
</g>
<g>
</g>
<g>
</g>
<g>
</g>
<g>
</g>
<g>
</g>
<g>
</g>
<g>
</g>
<g>
</g>
<g>
</g>
<g>
</g>
</svg>
