<?xml version="1.0" encoding="iso-8859-1"?>
<!-- Generator: Adobe Illustrator 19.0.0, SVG Export Plug-In . SVG Version: 6.00 Build 0)  -->
<svg version="1.1" id="Layer_1" xmlns="http://www.w3.org/2000/svg" xmlns:xlink="http://www.w3.org/1999/xlink" x="0px" y="0px"
	 viewBox="0 0 512 512" style="enable-background:new 0 0 512 512;" xml:space="preserve">
<g>
	<g>
		<path d="M437.019,74.982C388.667,26.628,324.381,0,256,0S123.333,26.628,74.982,74.982C26.628,123.333,0,187.619,0,256
			s26.628,132.667,74.982,181.019C123.333,485.372,187.619,512,256,512s132.667-26.628,181.019-74.981
			C485.372,388.667,512,324.381,512,256S485.372,123.333,437.019,74.982z M256,491.602c-129.911,0-235.602-105.69-235.602-235.602
			S126.089,20.398,256,20.398S491.602,126.089,491.602,256S385.911,491.602,256,491.602z"/>
	</g>
</g>
<g>
	<g>
		<path d="M450.364,178.795c-21.665-54.498-65.54-97.656-120.378-118.408c-5.269-1.996-11.155,0.662-13.149,5.929
			c-1.995,5.268,0.66,11.156,5.929,13.149c49.491,18.728,89.089,57.679,108.642,106.865c1.59,3.998,5.425,6.435,9.481,6.435
			c1.254,0,2.529-0.234,3.765-0.724C449.888,189.96,452.445,184.03,450.364,178.795z"/>
	</g>
</g>
<g>
	<g>
		<path d="M291.37,49.898c-11.605-1.979-23.505-2.981-35.37-2.981c-5.632,0-10.199,4.567-10.199,10.199S250.368,67.315,256,67.315
			c10.72,0,21.467,0.906,31.944,2.69c0.579,0.1,1.156,0.148,1.725,0.148c4.88,0,9.195-3.515,10.042-8.488
			C300.657,56.112,296.922,50.844,291.37,49.898z"/>
	</g>
</g>
<g>
	<g>
		<path d="M367.879,264.422L281.08,136.068c-5.638-8.338-15.014-13.316-25.08-13.316s-19.442,4.978-25.08,13.316l-86.798,128.354
			v-0.001c-6.291,9.301-6.927,21.239-1.662,31.158c5.265,9.918,15.512,16.079,26.741,16.079h173.599
			c11.229,0,21.476-6.161,26.742-16.078C374.806,285.66,374.17,273.722,367.879,264.422z M351.526,286.013
			c-0.837,1.578-3.364,5.247-8.724,5.247h-173.6c-5.361,0-7.888-3.669-8.724-5.247c-0.838-1.577-2.46-5.724,0.542-10.163
			c0,0,0,0,0-0.001l86.8-128.355c1.866-2.76,4.848-4.344,8.181-4.344c3.333,0,6.314,1.584,8.185,4.344l86.799,128.356
			C353.986,280.289,352.363,284.436,351.526,286.013z"/>
	</g>
</g>
<g>
	<g>
		<path d="M340.286,323.6H171.713c-18.099,0-32.823,14.726-32.823,32.824s14.725,32.824,32.823,32.824h168.574
			c18.099,0,32.822-14.726,32.822-32.824S358.385,323.6,340.286,323.6z M340.286,368.85H171.713
			c-6.851,0-12.425-5.574-12.425-12.426s5.574-12.426,12.425-12.426h168.573c6.851,0,12.425,5.574,12.425,12.426
			S347.137,368.85,340.286,368.85z"/>
	</g>
</g>
<g>
</g>
<g>
</g>
<g>
</g>
<g>
</g>
<g>
</g>
<g>
</g>
<g>
</g>
<g>
</g>
<g>
</g>
<g>
</g>
<g>
</g>
<g>
</g>
<g>
</g>
<g>
</g>
<g>
</g>
</svg>
