<?xml version="1.0" encoding="iso-8859-1"?>
<!-- Generator: Adobe Illustrator 19.0.0, SVG Export Plug-In . SVG Version: 6.00 Build 0)  -->
<svg version="1.1" id="Layer_1" xmlns="http://www.w3.org/2000/svg" xmlns:xlink="http://www.w3.org/1999/xlink" x="0px" y="0px"
	 viewBox="0 0 512 512" style="enable-background:new 0 0 512 512;" xml:space="preserve">
<g>
	<g>
		<path d="M421.227,0H90.773C40.72,0,0,40.72,0,90.773v330.454C0,471.28,40.72,512,90.773,512h330.454
			C471.28,512,512,471.28,512,421.227V90.773C512,40.72,471.28,0,421.227,0z M491.602,421.227c0,38.805-31.57,70.375-70.375,70.375
			H90.773c-38.805,0-70.374-31.57-70.374-70.375V90.773c0-38.805,31.57-70.375,70.374-70.375h330.454
			c38.805,0,70.375,31.57,70.375,70.375V421.227z"/>
	</g>
</g>
<g>
	<g>
		<path d="M431.597,36.717h-20.569c-5.632,0-10.199,4.566-10.199,10.199c0,5.633,4.567,10.199,10.199,10.199h20.569
			c5.632,0,10.199-4.566,10.199-10.199C441.796,41.283,437.229,36.717,431.597,36.717z"/>
	</g>
</g>
<g>
	<g>
		<path d="M368.191,36.717H80.403c-5.632,0-10.199,4.566-10.199,10.199c0,5.633,4.567,10.199,10.199,10.199h287.788
			c5.632,0,10.199-4.566,10.199-10.199C378.39,41.283,373.823,36.717,368.191,36.717z"/>
	</g>
</g>
<g>
	<g>
		<path d="M411.128,231.618L287.931,108.42c-13.445-13.445-35.321-13.445-48.765,0c-13.445,13.446-13.445,35.321,0,48.765
			L337.98,256l-98.815,98.815c-13.445,13.445-13.445,35.32,0,48.764c6.512,6.513,15.171,10.1,24.382,10.1
			c9.21,0,17.869-3.587,24.383-10.099l123.197-123.198C424.572,266.938,424.572,245.062,411.128,231.618z M396.704,265.958
			L273.508,389.156c-2.662,2.66-6.198,4.126-9.96,4.126c-3.763,0-7.299-1.466-9.959-4.126c-5.491-5.491-5.491-14.426,0-19.917
			l106.026-106.025c3.983-3.984,3.983-10.442,0-14.425L253.589,142.761c-5.491-5.491-5.491-14.426,0-19.917
			c2.746-2.746,6.352-4.118,9.958-4.118c3.607,0,7.214,1.372,9.958,4.117L396.704,246.04
			C402.195,251.532,402.195,260.466,396.704,265.958z"/>
	</g>
</g>
<g>
	<g>
		<path d="M292.213,231.618L169.016,108.42c-13.445-13.445-35.321-13.445-48.765,0c-13.445,13.446-13.445,35.321,0,48.765
			L219.066,256l-98.814,98.815c-13.445,13.445-13.445,35.32,0,48.764c6.512,6.513,15.171,10.1,24.382,10.1
			c9.209,0,17.868-3.587,24.382-10.099l123.197-123.198C305.658,266.938,305.658,245.062,292.213,231.618z M277.79,265.958
			L154.593,389.156c-2.662,2.66-6.198,4.126-9.96,4.126c-3.762,0-7.299-1.466-9.958-4.126c-5.491-5.491-5.491-14.426,0-19.917
			l106.027-106.025c3.983-3.984,3.983-10.442,0-14.425L134.675,142.761c-5.491-5.491-5.491-14.426,0-19.917
			c2.746-2.746,6.352-4.118,9.958-4.118c3.606,0,7.213,1.372,9.957,4.117L277.79,246.04
			C283.281,251.532,283.281,260.466,277.79,265.958z"/>
	</g>
</g>
<g>
</g>
<g>
</g>
<g>
</g>
<g>
</g>
<g>
</g>
<g>
</g>
<g>
</g>
<g>
</g>
<g>
</g>
<g>
</g>
<g>
</g>
<g>
</g>
<g>
</g>
<g>
</g>
<g>
</g>
</svg>
