<?xml version="1.0" encoding="iso-8859-1"?>
<!-- Generator: Adobe Illustrator 19.0.0, SVG Export Plug-In . SVG Version: 6.00 Build 0)  -->
<svg version="1.1" id="Layer_1" xmlns="http://www.w3.org/2000/svg" xmlns:xlink="http://www.w3.org/1999/xlink" x="0px" y="0px"
	 viewBox="0 0 512 512" style="enable-background:new 0 0 512 512;" xml:space="preserve">
<g>
	<g>
		<path d="M421.227,0H90.773C40.72,0,0,40.72,0,90.773v330.454C0,471.28,40.72,512,90.773,512h330.454
			C471.28,512,512,471.28,512,421.227V90.773C512,40.72,471.28,0,421.227,0z M491.602,421.227c0,38.805-31.57,70.375-70.375,70.375
			H90.773c-38.805,0-70.374-31.57-70.374-70.375V90.773c0-38.805,31.57-70.375,70.374-70.375h330.454
			c38.805,0,70.375,31.57,70.375,70.375V421.227z"/>
	</g>
</g>
<g>
	<g>
		<path d="M431.597,36.717h-20.569c-5.632,0-10.199,4.566-10.199,10.199c0,5.633,4.567,10.199,10.199,10.199h20.569
			c5.632,0,10.199-4.566,10.199-10.199C441.796,41.283,437.229,36.717,431.597,36.717z"/>
	</g>
</g>
<g>
	<g>
		<path d="M368.191,36.717H80.403c-5.632,0-10.199,4.566-10.199,10.199c0,5.633,4.567,10.199,10.199,10.199h287.788
			c5.632,0,10.199-4.566,10.199-10.199C378.39,41.283,373.823,36.717,368.191,36.717z"/>
	</g>
</g>
<g>
	<g>
		<path d="M174.02,256l98.815-98.816c13.445-13.446,13.445-35.321,0-48.765c-13.445-13.445-35.321-13.445-48.765,0L100.872,231.617
			c-13.445,13.446-13.445,35.321,0,48.765L224.071,403.58c6.512,6.512,15.172,10.099,24.381,10.099
			c9.211,0,17.87-3.587,24.382-10.099c13.445-13.445,13.445-35.32,0-48.764L174.02,256z M258.411,389.158
			c-2.661,2.659-6.197,4.125-9.959,4.125c-3.761,0-7.299-1.466-9.958-4.126L115.297,265.958c-5.491-5.491-5.491-14.426,0-19.917
			l123.197-123.197c2.746-2.746,6.352-4.118,9.958-4.118c3.606,0,7.213,1.372,9.958,4.116c5.491,5.491,5.491,14.426,0,19.917
			L152.383,248.787c-3.983,3.984-3.983,10.442,0,14.425l106.028,106.029C263.902,374.732,263.902,383.666,258.411,389.158z"/>
	</g>
</g>
<g>
	<g>
		<path d="M391.146,354.816L292.331,256l98.815-98.816c13.445-13.446,13.445-35.321,0-48.765c-13.445-13.445-35.321-13.445-48.765,0
			L219.183,231.617c-13.445,13.446-13.445,35.321,0,48.765L342.382,403.58c6.512,6.512,15.172,10.099,24.381,10.099
			c9.211,0,17.87-3.587,24.382-10.099C404.59,390.136,404.59,368.261,391.146,354.816z M376.722,389.158
			c-2.661,2.659-6.197,4.125-9.958,4.125s-7.299-1.466-9.958-4.126L233.608,265.958c-5.491-5.491-5.491-14.426,0-19.917
			l123.197-123.197c2.746-2.746,6.352-4.118,9.958-4.118s7.213,1.372,9.957,4.116c5.491,5.491,5.491,14.426,0,19.917
			L270.694,248.787c-3.983,3.984-3.983,10.442,0,14.425l106.028,106.029C382.213,374.732,382.213,383.666,376.722,389.158z"/>
	</g>
</g>
<g>
</g>
<g>
</g>
<g>
</g>
<g>
</g>
<g>
</g>
<g>
</g>
<g>
</g>
<g>
</g>
<g>
</g>
<g>
</g>
<g>
</g>
<g>
</g>
<g>
</g>
<g>
</g>
<g>
</g>
</svg>
