<?xml version="1.0" encoding="iso-8859-1"?>
<!-- Generator: Adobe Illustrator 19.0.0, SVG Export Plug-In . SVG Version: 6.00 Build 0)  -->
<svg version="1.1" id="Layer_1" xmlns="http://www.w3.org/2000/svg" xmlns:xlink="http://www.w3.org/1999/xlink" x="0px" y="0px"
	 viewBox="0 0 512 512" style="enable-background:new 0 0 512 512;" xml:space="preserve">
<g>
	<g>
		<path d="M437.02,74.982C388.667,26.628,324.38,0,256,0S123.333,26.628,74.98,74.982C26.628,123.333,0,187.619,0,256
			s26.628,132.667,74.98,181.019C123.333,485.372,187.62,512,256,512s132.667-26.628,181.02-74.981
			C485.372,388.667,512,324.381,512,256S485.372,123.333,437.02,74.982z M256,491.602c-129.911,0-235.602-105.69-235.602-235.602
			S126.089,20.398,256,20.398S491.602,126.089,491.602,256S385.911,491.602,256,491.602z"/>
	</g>
</g>
<g>
	<g>
		<path d="M450.365,178.795C428.7,124.297,384.824,81.139,329.987,60.387c-5.269-1.996-11.155,0.662-13.149,5.929
			c-1.995,5.268,0.66,11.156,5.929,13.149c49.491,18.728,89.089,57.679,108.643,106.865c1.589,3.998,5.424,6.435,9.48,6.435
			c1.253,0,2.528-0.234,3.766-0.724C449.89,189.959,452.447,184.03,450.365,178.795z"/>
	</g>
</g>
<g>
	<g>
		<path d="M291.371,49.898c-11.606-1.979-23.505-2.981-35.371-2.981c-5.633,0-10.199,4.567-10.199,10.199S250.367,67.315,256,67.315
			c10.72,0,21.467,0.906,31.943,2.69c0.58,0.1,1.157,0.148,1.726,0.148c4.88,0,9.195-3.515,10.043-8.488
			C300.657,56.112,296.923,50.844,291.371,49.898z"/>
	</g>
</g>
<g>
	<g>
		<path d="M347.276,237.784l-98.558-98.558c-5.596-5.596-13.036-8.677-20.949-8.677s-15.353,3.082-20.948,8.677
			c-5.595,5.594-8.677,13.035-8.677,20.948c0,7.913,3.082,15.353,8.677,20.948l77.61,77.61l-77.61,77.611
			c-5.595,5.594-8.677,13.035-8.677,20.948c0,7.913,3.081,15.353,8.677,20.948c5.597,5.596,13.037,8.677,20.948,8.677
			c7.913,0,15.352-3.081,20.949-8.677l98.558-98.558C358.826,268.13,358.826,249.336,347.276,237.784z M332.851,265.256
			l-98.558,98.558c-1.743,1.743-4.06,2.703-6.524,2.703s-4.78-0.961-6.523-2.703c-1.743-1.742-2.703-4.059-2.703-6.523
			s0.96-4.78,2.703-6.523l84.822-84.823c3.983-3.984,3.983-10.442,0-14.425l-84.822-84.822c-1.743-1.742-2.703-4.059-2.703-6.523
			c0-2.465,0.96-4.78,2.703-6.523c1.742-1.743,4.058-2.703,6.523-2.703c2.464,0,4.781,0.96,6.524,2.701l98.558,98.558
			C336.448,255.804,336.448,261.659,332.851,265.256z"/>
	</g>
</g>
<g>
</g>
<g>
</g>
<g>
</g>
<g>
</g>
<g>
</g>
<g>
</g>
<g>
</g>
<g>
</g>
<g>
</g>
<g>
</g>
<g>
</g>
<g>
</g>
<g>
</g>
<g>
</g>
<g>
</g>
</svg>
