<?xml version="1.0" encoding="iso-8859-1"?>
<!-- Generator: Adobe Illustrator 19.0.0, SVG Export Plug-In . SVG Version: 6.00 Build 0)  -->
<svg version="1.1" id="Layer_1" xmlns="http://www.w3.org/2000/svg" xmlns:xlink="http://www.w3.org/1999/xlink" x="0px" y="0px"
	 viewBox="0 0 511.999 511.999" style="enable-background:new 0 0 511.999 511.999;" xml:space="preserve">
<g>
	<g>
		<path d="M361.667,189.31c1.578,3.813,5.297,6.301,9.425,6.301c4.127,0,7.847-2.487,9.425-6.301c3.57-8.63,5.38-17.771,5.38-27.167
			c0-35.751-26.521-65.414-60.92-70.377V67.966c16.316,3.32,30.143,14.487,36.692,30.32c1.578,3.813,5.297,6.301,9.425,6.301
			c4.128,0,7.847-2.487,9.425-6.301c3.57-8.631,5.38-17.772,5.38-27.168C385.892,31.904,353.988,0,314.773,0
			c-5.633,0-10.199,4.567-10.199,10.199v355.92c-9.24-8.872-21.232-15.483-35.361-19.263c-23.31-6.237-49.788-4.02-74.557,6.239
			c0,0,0,0,0,0.001c-24.768,10.259-45.058,27.415-57.131,48.307c-12.581,21.77-14.855,44.997-6.402,65.404
			c8.453,20.407,26.484,35.223,50.775,41.721c8.677,2.321,17.793,3.471,27.097,3.471c15.689,0,31.911-3.27,47.459-9.71
			c24.768-10.259,45.058-27.415,57.131-48.307c7.98-13.807,11.806-28.201,11.386-42.09v-70.255
			c16.316,3.32,30.143,14.487,36.691,30.319c1.578,3.813,5.297,6.301,9.425,6.301s7.847-2.487,9.425-6.301
			c3.57-8.631,5.38-17.772,5.38-27.167c0-35.752-26.521-65.415-60.92-70.378v-24.066c16.316,3.32,30.143,14.487,36.691,30.319
			c1.578,3.813,5.297,6.301,9.425,6.301s7.847-2.487,9.425-6.301c3.57-8.63,5.38-17.771,5.38-27.167
			c0-35.751-26.521-65.414-60.92-70.377v-24.13C341.291,162.31,355.118,173.478,361.667,189.31z M248.649,483.444
			c-13.391,5.546-27.042,8.181-39.837,8.18c-27.027-0.002-50.202-11.756-58.844-32.621c-12.733-30.741,10.815-69.797,52.495-87.06
			c41.679-17.264,85.947-6.299,98.68,24.443C313.876,427.127,290.327,466.181,248.649,483.444z M324.971,21.428
			c21.989,4.507,38.838,23.287,40.404,46.198c-10.769-10.911-24.901-18.143-40.404-20.364V21.428z M365.375,341.295
			c-10.769-10.911-24.901-18.142-40.404-20.363v-25.835C346.96,299.604,363.809,318.384,365.375,341.295z M365.375,250.004
			c-10.769-10.911-24.901-18.142-40.404-20.363v-25.834C346.96,208.314,363.809,227.093,365.375,250.004z M324.971,138.288v-25.834
			c21.989,4.507,38.838,23.286,40.404,46.197C354.606,147.74,340.474,140.509,324.971,138.288z"/>
	</g>
</g>
<g>
	<g>
		<g>
			<path d="M178.562,410.01c-4.898-2.78-11.124-1.062-13.904,3.837c-8.103,14.279-9.489,29.573-3.901,43.062
				c1.628,3.928,5.425,6.299,9.427,6.299c1.299,0,2.622-0.251,3.899-0.781c5.203-2.155,7.676-8.12,5.52-13.325
				c-3.128-7.551-2.135-16.497,2.797-25.187C185.178,419.015,183.46,412.79,178.562,410.01z"/>
			<path d="M215.067,387.733c-2.156-5.203-8.122-7.675-13.326-5.519c-4.475,1.854-8.78,4.089-12.797,6.643
				c-4.754,3.023-6.156,9.326-3.134,14.08c1.944,3.056,5.243,4.727,8.616,4.727c1.872,0,3.766-0.515,5.463-1.595
				c3.022-1.921,6.271-3.607,9.658-5.011C214.752,398.903,217.223,392.937,215.067,387.733z"/>
		</g>
	</g>
</g>
<g>
</g>
<g>
</g>
<g>
</g>
<g>
</g>
<g>
</g>
<g>
</g>
<g>
</g>
<g>
</g>
<g>
</g>
<g>
</g>
<g>
</g>
<g>
</g>
<g>
</g>
<g>
</g>
<g>
</g>
</svg>
