<?xml version="1.0" encoding="iso-8859-1"?>
<!-- Generator: Adobe Illustrator 19.0.0, SVG Export Plug-In . SVG Version: 6.00 Build 0)  -->
<svg version="1.1" id="Layer_1" xmlns="http://www.w3.org/2000/svg" xmlns:xlink="http://www.w3.org/1999/xlink" x="0px" y="0px"
	 viewBox="0 0 511.999 511.999" style="enable-background:new 0 0 511.999 511.999;" xml:space="preserve">
<g>
	<g>
		<path d="M345.22,0c-5.633,0-10.199,4.567-10.199,10.199v225.569c0,5.632,4.566,10.199,10.199,10.199
			c5.633,0,10.199-4.567,10.199-10.199V10.199C355.419,4.567,350.853,0,345.22,0z"/>
	</g>
</g>
<g>
	<g>
		<path d="M345.22,270.457c-5.633,0-10.199,4.567-10.199,10.199v16.833c0,5.632,4.566,10.199,10.199,10.199
			c5.633,0,10.199-4.567,10.199-10.199v-16.833C355.419,275.024,350.853,270.457,345.22,270.457z"/>
	</g>
</g>
<g>
	<g>
		<path d="M305.674,407.119c-10.006-24.157-40.429-34.585-67.818-23.238c-27.388,11.344-41.529,40.228-31.523,64.388
			c7.261,17.529,25.266,27.825,45.066,27.825c7.488,0,15.236-1.474,22.753-4.586c0,0,0,0,0-0.001
			C301.539,460.16,315.68,431.277,305.674,407.119z M266.345,452.661c-16.997,7.042-35.465,1.567-41.167-12.199
			c-5.702-13.767,3.487-30.697,20.483-37.737c5.034-2.086,10.194-3.073,15.116-3.073c11.698,0,22.038,5.582,26.052,15.273
			C292.53,428.691,283.342,445.62,266.345,452.661z"/>
	</g>
</g>
<g>
	<g>
		<path d="M355.419,411.891v-69.513c0-5.632-4.566-10.199-10.199-10.199s-10.199,4.567-10.199,10.199v23.742
			c-9.24-8.872-21.232-15.483-35.361-19.263c-23.31-6.237-49.788-4.019-74.557,6.239c0,0,0,0,0,0.001
			c-24.768,10.259-45.058,27.415-57.131,48.307c-12.581,21.77-14.855,44.997-6.402,65.404c8.453,20.407,26.484,35.223,50.775,41.721
			c8.677,2.321,17.793,3.471,27.097,3.471c15.689,0,31.911-3.27,47.459-9.71c24.768-10.259,45.058-27.415,57.131-48.307
			C352.013,440.174,355.84,425.781,355.419,411.891z M279.096,483.444c-13.391,5.546-27.042,8.181-39.837,8.18
			c-27.027-0.002-50.202-11.756-58.844-32.621c-12.733-30.741,10.815-69.797,52.495-87.06c41.68-17.263,85.948-6.299,98.68,24.443
			C344.323,427.125,320.775,466.181,279.096,483.444z"/>
	</g>
</g>
<g>
</g>
<g>
</g>
<g>
</g>
<g>
</g>
<g>
</g>
<g>
</g>
<g>
</g>
<g>
</g>
<g>
</g>
<g>
</g>
<g>
</g>
<g>
</g>
<g>
</g>
<g>
</g>
<g>
</g>
</svg>
