<?xml version="1.0" encoding="iso-8859-1"?>
<!-- Generator: Adobe Illustrator 19.0.0, SVG Export Plug-In . SVG Version: 6.00 Build 0)  -->
<svg version="1.1" id="Layer_1" xmlns="http://www.w3.org/2000/svg" xmlns:xlink="http://www.w3.org/1999/xlink" x="0px" y="0px"
	 viewBox="0 0 512 512" style="enable-background:new 0 0 512 512;" xml:space="preserve">
<g>
	<g>
		<path d="M511.969,352.552V24.827c0-2.948-1.276-5.753-3.499-7.689c-2.223-1.937-5.175-2.814-8.096-2.413L193.287,57.2
			c-5.044,0.698-8.801,5.009-8.801,10.102V347.74h-0.001c-9.587-9.42-22.137-16.43-36.986-20.402
			c-24.023-6.426-51.314-4.141-76.848,6.436c-25.533,10.576-46.447,28.258-58.89,49.789c-12.95,22.409-15.293,46.311-6.597,67.305
			c8.696,20.993,27.254,36.238,52.257,42.927c8.941,2.391,18.334,3.576,27.921,3.576c16.172,0,32.897-3.372,48.927-10.012
			c25.533-10.576,46.447-28.258,58.89-49.789c8.215-14.216,12.155-29.031,11.723-43.324V149.131l286.691-39.654v196.562
			c-9.587-9.42-22.137-16.43-36.986-20.402c-24.023-6.426-51.314-4.14-76.848,6.436c-25.533,10.576-46.447,28.258-58.89,49.789
			c-12.95,22.409-15.294,46.311-6.598,67.304c8.696,20.992,27.255,36.238,52.257,42.926c8.941,2.391,18.335,3.576,27.922,3.576
			c16.172,0,32.896-3.372,48.926-10.012c25.533-10.576,46.447-28.258,58.89-49.79C508.458,381.654,512.398,366.842,511.969,352.552z
			 M126.463,468.515c-21.411,8.869-44.059,10.849-63.772,5.576c-18.733-5.011-32.472-16.031-38.684-31.028
			c-6.213-14.998-4.29-32.504,5.413-49.294c10.21-17.668,27.625-32.282,49.036-41.151c13.88-5.75,28.036-8.478,41.301-8.478
			c28.08,0,52.166,12.23,61.154,33.93C194.148,410.023,169.722,450.596,126.463,468.515z M491.572,88.886l-286.691,39.654V76.187
			l286.691-39.654V88.886z M482.587,385.661c-10.21,17.668-27.625,32.282-49.036,41.151c-43.26,17.918-89.221,6.5-102.456-25.453
			c-13.236-31.953,11.191-72.527,54.45-90.445c13.556-5.615,27.606-8.468,41.095-8.468c7.817,0,15.445,0.959,22.677,2.893
			c18.733,5.011,32.472,16.031,38.684,31.029C494.211,351.365,492.289,368.871,482.587,385.661z"/>
	</g>
</g>
<g>
	<g>
		<path d="M481.279,58.808c-0.771-5.579-5.925-9.475-11.499-8.705l-18.356,2.539c-5.579,0.772-9.477,5.92-8.705,11.499
			c0.706,5.105,5.076,8.802,10.089,8.802c0.465,0,0.936-0.033,1.41-0.097l18.356-2.539
			C478.154,69.535,482.051,64.387,481.279,58.808z"/>
	</g>
</g>
<g>
	<g>
		<path d="M427.231,66.285c-0.772-5.579-5.923-9.473-11.499-8.705L227.073,83.674c-5.579,0.772-9.477,5.92-8.705,11.499
			c0.706,5.105,5.076,8.802,10.089,8.802c0.465,0,0.937-0.033,1.41-0.097l188.659-26.094
			C424.105,77.012,428.003,71.864,427.231,66.285z"/>
	</g>
</g>
<g>
</g>
<g>
</g>
<g>
</g>
<g>
</g>
<g>
</g>
<g>
</g>
<g>
</g>
<g>
</g>
<g>
</g>
<g>
</g>
<g>
</g>
<g>
</g>
<g>
</g>
<g>
</g>
<g>
</g>
</svg>
