<?xml version="1.0" encoding="iso-8859-1"?>
<!-- Generator: Adobe Illustrator 19.0.0, SVG Export Plug-In . SVG Version: 6.00 Build 0)  -->
<svg version="1.1" id="Layer_1" xmlns="http://www.w3.org/2000/svg" xmlns:xlink="http://www.w3.org/1999/xlink" x="0px" y="0px"
	 viewBox="0 0 512 512" style="enable-background:new 0 0 512 512;" xml:space="preserve">
<g>
	<g>
		<path d="M421.227,0H90.773C40.72,0,0,40.72,0,90.773v330.454C0,471.28,40.72,512,90.773,512h330.454
			C471.28,512,512,471.28,512,421.227V90.773C512,40.72,471.28,0,421.227,0z M491.602,421.227c0,38.805-31.57,70.375-70.375,70.375
			H90.773c-38.805,0-70.374-31.57-70.374-70.375V90.773c0-38.805,31.57-70.375,70.374-70.375h330.454
			c38.805,0,70.375,31.57,70.375,70.375V421.227z"/>
	</g>
</g>
<g>
	<g>
		<path d="M431.597,36.717h-20.569c-5.633,0-10.199,4.566-10.199,10.199c0,5.633,4.566,10.199,10.199,10.199h20.569
			c5.632,0,10.199-4.566,10.199-10.199C441.796,41.283,437.23,36.717,431.597,36.717z"/>
	</g>
</g>
<g>
	<g>
		<path d="M368.191,36.717H80.403c-5.633,0-10.199,4.566-10.199,10.199c0,5.633,4.566,10.199,10.199,10.199h287.788
			c5.633,0,10.199-4.566,10.199-10.199C378.39,41.283,373.824,36.717,368.191,36.717z"/>
	</g>
</g>
<g>
	<g>
		<path d="M192.977,96.892c-22.999,0-41.711,18.711-41.711,41.711v234.794c0,22.999,18.711,41.711,41.711,41.711
			s41.711-18.711,41.711-41.711V138.603C234.688,115.604,215.976,96.892,192.977,96.892z M214.289,373.397
			c0,11.752-9.561,21.312-21.312,21.312s-21.312-9.561-21.312-21.312V138.603c0-11.752,9.561-21.312,21.312-21.312
			c11.75,0,21.312,9.561,21.312,21.312V373.397z"/>
	</g>
</g>
<g>
	<g>
		<path d="M319.023,96.892c-22.999,0-41.711,18.711-41.711,41.711v234.794c0,22.999,18.711,41.711,41.711,41.711
			c23,0,41.712-18.711,41.711-41.711V138.603C360.734,115.604,342.022,96.892,319.023,96.892z M340.335,373.397
			c0,11.752-9.561,21.312-21.312,21.312s-21.312-9.561-21.312-21.312V138.603c0-11.752,9.561-21.312,21.312-21.312
			c11.753,0,21.313,9.561,21.312,21.312V373.397z"/>
	</g>
</g>
<g>
</g>
<g>
</g>
<g>
</g>
<g>
</g>
<g>
</g>
<g>
</g>
<g>
</g>
<g>
</g>
<g>
</g>
<g>
</g>
<g>
</g>
<g>
</g>
<g>
</g>
<g>
</g>
<g>
</g>
</svg>
