<?xml version="1.0" encoding="iso-8859-1"?>
<!-- Generator: Adobe Illustrator 19.0.0, SVG Export Plug-In . SVG Version: 6.00 Build 0)  -->
<svg version="1.1" id="Layer_1" xmlns="http://www.w3.org/2000/svg" xmlns:xlink="http://www.w3.org/1999/xlink" x="0px" y="0px"
	 viewBox="0 0 512 512" style="enable-background:new 0 0 512 512;" xml:space="preserve">
<g>
	<g>
		<path d="M437.019,74.98C388.667,26.628,324.381,0,256,0S123.333,26.628,74.982,74.98C26.628,123.333,0,187.62,0,256
			s26.628,132.667,74.982,181.02C123.333,485.372,187.619,512,256,512s132.667-26.628,181.019-74.98
			C485.372,388.667,512,324.38,512,256S485.372,123.333,437.019,74.98z M256,491.602c-129.911,0-235.602-105.69-235.602-235.602
			S126.089,20.398,256,20.398S491.602,126.089,491.602,256S385.911,491.602,256,491.602z"/>
	</g>
</g>
<g>
	<g>
		<path d="M450.364,178.795c-21.665-54.498-65.541-97.656-120.378-118.408c-5.268-1.994-11.156,0.661-13.149,5.929
			c-1.995,5.268,0.66,11.155,5.929,13.149c49.491,18.728,89.089,57.68,108.642,106.866c1.59,3.998,5.425,6.434,9.481,6.434
			c1.254,0,2.529-0.234,3.765-0.724C449.888,189.96,452.445,184.029,450.364,178.795z"/>
	</g>
</g>
<g>
	<g>
		<path d="M291.371,49.898c-11.605-1.979-23.504-2.981-35.371-2.981c-5.632,0-10.199,4.566-10.199,10.199S250.368,67.315,256,67.315
			c10.721,0,21.468,0.906,31.943,2.691c0.58,0.099,1.157,0.147,1.726,0.147c4.88,0,9.194-3.514,10.042-8.486
			C300.657,56.113,296.923,50.844,291.371,49.898z"/>
	</g>
</g>
<g>
	<g>
		<path d="M253.96,130.754c-69.061,0-125.246,56.185-125.246,125.246s56.185,125.246,125.246,125.246S379.206,325.061,379.206,256
			S323.021,130.754,253.96,130.754z M253.96,360.848c-57.813,0-104.848-47.035-104.848-104.848s47.035-104.848,104.848-104.848
			c57.813,0,104.848,47.035,104.848,104.848S311.773,360.848,253.96,360.848z"/>
	</g>
</g>
<g>
</g>
<g>
</g>
<g>
</g>
<g>
</g>
<g>
</g>
<g>
</g>
<g>
</g>
<g>
</g>
<g>
</g>
<g>
</g>
<g>
</g>
<g>
</g>
<g>
</g>
<g>
</g>
<g>
</g>
</svg>
