<?xml version="1.0" encoding="iso-8859-1"?>
<!-- Generator: Adobe Illustrator 19.0.0, SVG Export Plug-In . SVG Version: 6.00 Build 0)  -->
<svg version="1.1" id="Layer_1" xmlns="http://www.w3.org/2000/svg" xmlns:xlink="http://www.w3.org/1999/xlink" x="0px" y="0px"
	 viewBox="0 0 512 512" style="enable-background:new 0 0 512 512;" xml:space="preserve">
<g>
	<g>
		<path d="M421.227,0H90.773C40.72,0,0,40.72,0,90.773v330.454C0,471.28,40.72,512,90.773,512h330.454
			C471.28,512,512,471.28,512,421.227V90.773C512,40.72,471.28,0,421.227,0z M491.602,421.227c0,38.805-31.57,70.375-70.375,70.375
			H90.773c-38.805,0-70.374-31.57-70.374-70.375V90.773c0-38.805,31.57-70.375,70.374-70.375h330.454
			c38.805,0,70.375,31.57,70.375,70.375V421.227z"/>
	</g>
</g>
<g>
	<g>
		<path d="M431.597,36.717h-20.569c-5.632,0-10.199,4.566-10.199,10.199c0,5.633,4.567,10.199,10.199,10.199h20.569
			c5.632,0,10.199-4.566,10.199-10.199C441.796,41.283,437.229,36.717,431.597,36.717z"/>
	</g>
</g>
<g>
	<g>
		<path d="M368.191,36.717H80.403c-5.632,0-10.199,4.566-10.199,10.199c0,5.633,4.567,10.199,10.199,10.199h287.788
			c5.632,0,10.199-4.566,10.199-10.199C378.39,41.283,373.823,36.717,368.191,36.717z"/>
	</g>
</g>
<g>
	<g>
		<path d="M253.96,101.992c-84.921,0-154.008,69.087-154.008,154.008S169.04,410.008,253.96,410.008S407.968,340.921,407.968,256
			S338.881,101.992,253.96,101.992z M253.96,389.61c-73.672,0-133.61-59.937-133.61-133.61s59.938-133.61,133.61-133.61
			S387.57,182.327,387.57,256S327.632,389.61,253.96,389.61z"/>
	</g>
</g>
<g>
</g>
<g>
</g>
<g>
</g>
<g>
</g>
<g>
</g>
<g>
</g>
<g>
</g>
<g>
</g>
<g>
</g>
<g>
</g>
<g>
</g>
<g>
</g>
<g>
</g>
<g>
</g>
<g>
</g>
</svg>
