<?xml version="1.0" encoding="iso-8859-1"?>
<!-- Generator: Adobe Illustrator 19.0.0, SVG Export Plug-In . SVG Version: 6.00 Build 0)  -->
<svg version="1.1" id="Layer_1" xmlns="http://www.w3.org/2000/svg" xmlns:xlink="http://www.w3.org/1999/xlink" x="0px" y="0px"
	 viewBox="0 0 512 512" style="enable-background:new 0 0 512 512;" xml:space="preserve">
<g>
	<g>
		<path d="M437.02,74.98C388.667,26.628,324.38,0,256,0S123.333,26.628,74.98,74.98C26.628,123.333,0,187.62,0,256
			s26.628,132.667,74.98,181.02C123.333,485.372,187.62,512,256,512s132.667-26.628,181.02-74.98
			C485.372,388.667,512,324.38,512,256S485.372,123.333,437.02,74.98z M256,491.602c-129.911,0-235.602-105.69-235.602-235.602
			S126.089,20.398,256,20.398S491.602,126.089,491.602,256S385.911,491.602,256,491.602z"/>
	</g>
</g>
<g>
	<g>
		<path d="M256,449.785c-106.853,0-193.785-86.932-193.785-193.785c0-5.633-4.566-10.199-10.199-10.199
			c-5.633,0-10.199,4.566-10.199,10.199c0,118.101,96.083,214.183,214.183,214.183c5.633,0,10.199-4.566,10.199-10.199
			C266.199,454.351,261.633,449.785,256,449.785z"/>
	</g>
</g>
<g>
	<g>
		<path d="M432.035,133.957c-24.38-35.103-58.218-61.874-97.856-77.422c-5.24-2.056-11.162,0.526-13.219,5.771
			s0.526,11.162,5.771,13.219C401.483,104.846,449.785,175.686,449.785,256c0,5.633,4.566,10.199,10.199,10.199
			c5.633,0,10.199-4.566,10.199-10.199C470.183,212.093,456.992,169.892,432.035,133.957z"/>
	</g>
</g>
<g>
	<g>
		<path d="M280.619,43.217c-8.114-0.929-16.397-1.4-24.619-1.4c-5.633,0-10.199,4.566-10.199,10.199
			c0,5.633,4.566,10.199,10.199,10.199c7.449,0,14.951,0.426,22.297,1.268c0.394,0.046,0.785,0.067,1.173,0.067
			c5.114,0,9.525-3.838,10.121-9.04C290.233,48.914,286.215,43.858,280.619,43.217z"/>
	</g>
</g>
<g>
</g>
<g>
</g>
<g>
</g>
<g>
</g>
<g>
</g>
<g>
</g>
<g>
</g>
<g>
</g>
<g>
</g>
<g>
</g>
<g>
</g>
<g>
</g>
<g>
</g>
<g>
</g>
<g>
</g>
</svg>
