<?xml version="1.0" encoding="iso-8859-1"?>
<!-- Generator: Adobe Illustrator 19.0.0, SVG Export Plug-In . SVG Version: 6.00 Build 0)  -->
<svg version="1.1" id="Layer_1" xmlns="http://www.w3.org/2000/svg" xmlns:xlink="http://www.w3.org/1999/xlink" x="0px" y="0px"
	 viewBox="0 0 512 512" style="enable-background:new 0 0 512 512;" xml:space="preserve">
<g>
	<g>
		<path d="M307.499,135.118V94.241c30.576,3.621,57.008,23.357,68.998,52.343c1.578,3.813,5.297,6.301,9.424,6.301
			s7.847-2.487,9.424-6.301c5.324-12.868,8.022-26.499,8.022-40.515C403.368,47.582,355.786,0,297.3,0
			c-5.632,0-10.199,4.567-10.199,10.199v355.919c-9.241-8.871-21.23-15.48-35.358-19.26c-23.309-6.236-49.787-4.019-74.557,6.239
			c-24.768,10.26-45.058,27.416-57.131,48.308c-12.581,21.77-14.854,44.997-6.402,65.404c8.453,20.407,26.485,35.223,50.775,41.721
			c8.677,2.321,17.793,3.471,27.096,3.471c15.689,0,31.911-3.27,47.459-9.71c24.768-10.26,45.058-27.416,57.131-48.308
			c7.979-13.805,11.805-28.198,11.386-42.085V228.866c30.576,3.621,57.008,23.357,68.998,52.343
			c1.578,3.813,5.297,6.301,9.424,6.301s7.847-2.486,9.424-6.301c5.324-12.868,8.022-26.499,8.022-40.515
			C403.369,185.648,361.218,140.267,307.499,135.118z M307.502,21.003c42.448,5.059,75.472,41.279,75.472,85.067
			c0,3.318-0.188,6.608-0.559,9.863c-17.721-23.866-44.795-39.344-74.913-42.214V21.003z M278.454,443.777
			c-9.84,17.028-26.63,31.117-47.276,39.669c-20.646,8.552-42.479,10.461-61.479,5.38c-18.02-4.821-31.232-15.411-37.201-29.823
			c-5.969-14.41-4.116-31.241,5.218-47.392c9.84-17.028,26.63-31.117,47.276-39.669c20.645-8.552,42.48-10.461,61.479-5.38
			c18.02,4.821,31.232,15.411,37.201,29.823C289.641,410.794,287.789,427.626,278.454,443.777z M382.414,250.558
			c-17.721-23.866-44.795-39.344-74.913-42.214v-52.716c42.448,5.059,75.472,41.28,75.472,85.067
			C382.973,244.012,382.786,247.302,382.414,250.558z"/>
	</g>
</g>
<g>
	<g>
		<g>
			<path d="M161.092,410.011c-4.898-2.779-11.123-1.062-13.904,3.837c-8.103,14.279-9.489,29.572-3.902,43.062
				c1.628,3.928,5.425,6.299,9.427,6.299c1.301,0,2.622-0.251,3.9-0.781c5.203-2.155,7.675-8.12,5.52-13.325
				c-3.129-7.551-2.136-16.497,2.797-25.187C167.708,419.017,165.991,412.791,161.092,410.011z"/>
			<path d="M197.596,387.734c-2.155-5.204-8.123-7.675-13.325-5.519c-4.476,1.854-8.781,4.089-12.798,6.643
				c-4.753,3.023-6.156,9.326-3.133,14.08c1.943,3.056,5.243,4.727,8.616,4.727c1.872,0,3.765-0.515,5.463-1.595
				c3.022-1.921,6.271-3.607,9.658-5.011C197.281,398.904,199.752,392.938,197.596,387.734z"/>
		</g>
	</g>
</g>
<g>
</g>
<g>
</g>
<g>
</g>
<g>
</g>
<g>
</g>
<g>
</g>
<g>
</g>
<g>
</g>
<g>
</g>
<g>
</g>
<g>
</g>
<g>
</g>
<g>
</g>
<g>
</g>
<g>
</g>
</svg>
