<?xml version="1.0" encoding="iso-8859-1"?>
<!-- Generator: Adobe Illustrator 19.0.0, SVG Export Plug-In . SVG Version: 6.00 Build 0)  -->
<svg version="1.1" id="Layer_1" xmlns="http://www.w3.org/2000/svg" xmlns:xlink="http://www.w3.org/1999/xlink" x="0px" y="0px"
	 viewBox="0 0 512 512" style="enable-background:new 0 0 512 512;" xml:space="preserve">
<g>
	<g>
		<path d="M421.227,0H90.773C40.72,0,0,40.72,0,90.773v330.454C0,471.28,40.72,512,90.773,512h330.454
			C471.28,512,512,471.28,512,421.227V90.773C512,40.72,471.28,0,421.227,0z M491.602,421.227c0,38.805-31.57,70.375-70.375,70.375
			H90.773c-38.805,0-70.374-31.57-70.374-70.375V90.773c0-38.805,31.57-70.375,70.374-70.375h330.454
			c38.805,0,70.375,31.57,70.375,70.375V421.227z"/>
	</g>
</g>
<g>
	<g>
		<path d="M431.597,36.717h-20.569c-5.632,0-10.199,4.566-10.199,10.199c0,5.633,4.567,10.199,10.199,10.199h20.569
			c5.632,0,10.199-4.566,10.199-10.199C441.796,41.283,437.229,36.717,431.597,36.717z"/>
	</g>
</g>
<g>
	<g>
		<path d="M368.191,36.717H80.403c-5.632,0-10.199,4.566-10.199,10.199c0,5.633,4.567,10.199,10.199,10.199h287.788
			c5.632,0,10.199-4.566,10.199-10.199C378.39,41.283,373.823,36.717,368.191,36.717z"/>
	</g>
</g>
<g>
	<g>
		<path d="M368.701,98.422H143.299c-24.745,0-44.877,20.131-44.877,44.877v225.402c0,24.745,20.131,44.876,44.877,44.876h225.402
			c24.745,0,44.876-20.131,44.876-44.876V143.299C413.578,118.554,393.447,98.422,368.701,98.422z M393.179,368.701
			c0,13.497-10.982,24.478-24.478,24.478H143.299c-13.497,0-24.478-10.982-24.478-24.478V143.299
			c0-13.497,10.981-24.478,24.478-24.478h225.402c13.497,0,24.478,10.981,24.478,24.478V368.701z"/>
	</g>
</g>
<g>
</g>
<g>
</g>
<g>
</g>
<g>
</g>
<g>
</g>
<g>
</g>
<g>
</g>
<g>
</g>
<g>
</g>
<g>
</g>
<g>
</g>
<g>
</g>
<g>
</g>
<g>
</g>
<g>
</g>
</svg>
