<?xml version="1.0" encoding="iso-8859-1"?>
<!-- Generator: Adobe Illustrator 19.0.0, SVG Export Plug-In . SVG Version: 6.00 Build 0)  -->
<svg version="1.1" id="Layer_1" xmlns="http://www.w3.org/2000/svg" xmlns:xlink="http://www.w3.org/1999/xlink" x="0px" y="0px"
	 viewBox="0 0 512 512" style="enable-background:new 0 0 512 512;" xml:space="preserve">
<g>
	<g>
		<path d="M501.801,0H10.199C4.567,0,0,4.566,0,10.199v491.602C0,507.434,4.567,512,10.199,512h491.602
			c5.632,0,10.199-4.566,10.199-10.199V10.199C512,4.566,507.433,0,501.801,0z M491.602,491.602H20.398V20.398h471.203V491.602z"/>
	</g>
</g>
<g>
	<g>
		<path d="M45.896,37.737c-5.632,0-10.199,4.566-10.199,10.199V67.94c0,5.633,4.567,10.199,10.199,10.199
			s10.199-4.566,10.199-10.199V47.936C56.096,42.303,51.528,37.737,45.896,37.737z"/>
	</g>
</g>
<g>
	<g>
		<path d="M45.896,95.643c-5.632,0-10.199,4.566-10.199,10.199v240.252c0,5.633,4.567,10.199,10.199,10.199
			s10.199-4.566,10.199-10.199V105.842C56.096,100.209,51.528,95.643,45.896,95.643z"/>
	</g>
</g>
<g>
</g>
<g>
</g>
<g>
</g>
<g>
</g>
<g>
</g>
<g>
</g>
<g>
</g>
<g>
</g>
<g>
</g>
<g>
</g>
<g>
</g>
<g>
</g>
<g>
</g>
<g>
</g>
<g>
</g>
</svg>
