<?xml version="1.0" encoding="UTF-8" standalone="no"?>
<!-- Generator: Adobe Illustrator 16.0.0, SVG Export Plug-In . SVG Version: 6.00 Build 0)  -->

<svg
   xmlns:dc="http://purl.org/dc/elements/1.1/"
   xmlns:cc="http://creativecommons.org/ns#"
   xmlns:rdf="http://www.w3.org/1999/02/22-rdf-syntax-ns#"
   xmlns:svg="http://www.w3.org/2000/svg"
   xmlns="http://www.w3.org/2000/svg"
   xmlns:sodipodi="http://sodipodi.sourceforge.net/DTD/sodipodi-0.dtd"
   xmlns:inkscape="http://www.inkscape.org/namespaces/inkscape"
   version="1.1"
   id="Capa_1"
   x="0px"
   y="0px"
   width="457.508px"
   height="457.508px"
   viewBox="0 0 457.508 457.508"
   style="enable-background:new 0 0 457.508 457.508;"
   xml:space="preserve"
   inkscape:version="0.91 r13725"
   sodipodi:docname="user-remove.svg"
   inkscape:export-filename="/media/sanke/src.ssd/Projects/SandBox/fr.sandbox/src/main/java/images/user-remove.png"
   inkscape:export-xdpi="90"
   inkscape:export-ydpi="90"><metadata
     id="metadata45"><rdf:RDF><cc:Work
         rdf:about=""><dc:format>image/svg+xml</dc:format><dc:type
           rdf:resource="http://purl.org/dc/dcmitype/StillImage" /></cc:Work></rdf:RDF></metadata><defs
     id="defs43" /><sodipodi:namedview
     pagecolor="#ffffff"
     bordercolor="#666666"
     borderopacity="1"
     objecttolerance="10"
     gridtolerance="10"
     guidetolerance="10"
     inkscape:pageopacity="0"
     inkscape:pageshadow="2"
     inkscape:window-width="1920"
     inkscape:window-height="1054"
     id="namedview41"
     showgrid="false"
     inkscape:zoom="0.51583798"
     inkscape:cx="0"
     inkscape:cy="228.754"
     inkscape:window-x="0"
     inkscape:window-y="0"
     inkscape:window-maximized="1"
     inkscape:current-layer="Capa_1" /><g
     id="g3"><path
       d="M78.377,121.405c0,66.918,54.258,121.271,121.291,121.271c66.984,0,121.319-54.353,121.319-121.271   C320.988,54.363,266.663,0,199.668,0C132.625,0,78.377,54.363,78.377,121.405z"
       id="path5" /><path
       d="M38.817,400.439c19.852,13.895,62.673,31.67,151.833,31.67c30.868,0,56.877-1.902,78.861-4.867   c-8.874-14.965-14.066-32.369-14.066-50.996c0-54.4,43.52-98.732,97.566-100.264c-6.407-13.721-14.478-27.52-24.786-40.688   c-5.546-7.057-15.663-14.803-25.445-20.101c-25.36,28.42-62.118,46.407-103.103,46.407c-40.957,0-77.705-17.997-103.036-46.35   c-9.562,5.432-19.412,13.177-24.776,20.215c-17.404,22.711-44.265,66.727-48.549,126.043   C22.399,374.018,28.356,393.133,38.817,400.439z"
       id="path7" /><path
       d="M353.002,294.945c-44.886,0-81.281,36.395-81.281,81.281s36.396,81.281,81.281,81.281   c44.887,0,81.281-36.395,81.281-81.281S397.899,294.945,353.002,294.945z M393.126,391.182h-31.355l-18.818,0.01l-31.355-0.01   c-5.202,0.01-9.41-4.197-9.4-9.389c0-5.203,4.208-9.41,9.4-9.41h31.365h18.809h31.347c5.192,0,9.399,4.207,9.409,9.41   C402.527,386.975,398.319,391.182,393.126,391.182z"
       id="path9" /></g><g
     id="g11" /><g
     id="g13" /><g
     id="g15" /><g
     id="g17" /><g
     id="g19" /><g
     id="g21" /><g
     id="g23" /><g
     id="g25" /><g
     id="g27" /><g
     id="g29" /><g
     id="g31" /><g
     id="g33" /><g
     id="g35" /><g
     id="g37" /><g
     id="g39" /></svg>