<?xml version="1.0" encoding="UTF-8" standalone="no"?>
<!-- Generator: Adobe Illustrator 16.0.0, SVG Export Plug-In . SVG Version: 6.00 Build 0)  -->

<svg
   xmlns:dc="http://purl.org/dc/elements/1.1/"
   xmlns:cc="http://creativecommons.org/ns#"
   xmlns:rdf="http://www.w3.org/1999/02/22-rdf-syntax-ns#"
   xmlns:svg="http://www.w3.org/2000/svg"
   xmlns="http://www.w3.org/2000/svg"
   xmlns:sodipodi="http://sodipodi.sourceforge.net/DTD/sodipodi-0.dtd"
   xmlns:inkscape="http://www.inkscape.org/namespaces/inkscape"
   version="1.1"
   id="Capa_1"
   x="0px"
   y="0px"
   width="457.508px"
   height="457.508px"
   viewBox="0 0 457.508 457.508"
   style="enable-background:new 0 0 457.508 457.508;"
   xml:space="preserve"
   inkscape:version="0.91 r13725"
   sodipodi:docname="user-guest.svg"
   inkscape:export-filename="/media/sanke/src.ssd/Projects/SandBox/fr.sandbox/src/main/java/images/user-guest.png"
   inkscape:export-xdpi="90"
   inkscape:export-ydpi="90"><metadata
     id="metadata45"><rdf:RDF><cc:Work
         rdf:about=""><dc:format>image/svg+xml</dc:format><dc:type
           rdf:resource="http://purl.org/dc/dcmitype/StillImage" /></cc:Work></rdf:RDF></metadata><defs
     id="defs43" /><sodipodi:namedview
     pagecolor="#ffffff"
     bordercolor="#666666"
     borderopacity="1"
     objecttolerance="10"
     gridtolerance="10"
     guidetolerance="10"
     inkscape:pageopacity="0"
     inkscape:pageshadow="2"
     inkscape:window-width="1920"
     inkscape:window-height="1054"
     id="namedview41"
     showgrid="false"
     inkscape:zoom="1.4590101"
     inkscape:cx="250.30703"
     inkscape:cy="39.427293"
     inkscape:window-x="0"
     inkscape:window-y="0"
     inkscape:window-maximized="1"
     inkscape:current-layer="Capa_1" /><path
     inkscape:connector-curvature="0"
     id="path5"
     d="m 78.377,121.405 c 0,66.918 54.258,121.271 121.291,121.271 66.984,0 121.319,-54.353 121.319,-121.271 C 320.988,54.363 266.663,0 199.668,0 132.625,0 78.377,54.363 78.377,121.405 Z" /><path
     inkscape:connector-curvature="0"
     id="path7"
     d="m 38.817,400.439 c 19.852,13.895 62.673,31.67 151.833,31.67 30.868,0 56.877,-1.902 78.861,-4.867 -8.874,-14.965 -14.066,-32.369 -14.066,-50.996 0,-54.4 43.52,-98.732 97.566,-100.264 -6.407,-13.721 -14.478,-27.52 -24.786,-40.688 -5.546,-7.057 -15.663,-14.803 -25.445,-20.101 -25.36,28.42 -62.118,46.407 -103.103,46.407 -40.957,0 -77.705,-17.997 -103.036,-46.35 -9.562,5.432 -19.412,13.177 -24.776,20.215 -17.404,22.711 -44.265,66.727 -48.549,126.043 -0.917,12.51 5.04,31.625 15.501,38.931 z" /><path
     d="M 353.00195 294.94531 C 308.11595 294.94531 271.7207 331.34056 271.7207 376.22656 C 271.7207 421.11256 308.11695 457.50781 353.00195 457.50781 C 397.88895 457.50781 434.2832 421.11256 434.2832 376.22656 C 434.2832 331.34056 397.89895 294.94531 353.00195 294.94531 z M 354.27148 339.625 C 371.31526 339.36279 383.11462 346.31126 389.66992 360.4707 L 371.57617 367.55078 C 367.64299 360.20885 361.87563 356.66943 354.27148 356.93164 C 343.25858 357.98049 337.48927 365.71506 336.96484 380.13672 C 337.48927 395.34501 343.38895 403.34422 354.66406 404.13086 C 362.006 404.39307 366.85689 402.94928 369.2168 399.80273 L 369.2168 389.9707 L 350.73047 389.9707 L 350.73047 373.05859 L 389.66992 373.05859 L 389.66992 402.94922 C 384.42568 414.74876 372.62632 420.64844 354.27148 420.64844 C 329.09914 420.12401 316.24903 406.62012 315.72461 380.13672 C 317.03567 354.70216 329.88577 341.19827 354.27148 339.625 z "
     id="path9" /><g
     id="g11" /><g
     id="g13" /><g
     id="g15" /><g
     id="g17" /><g
     id="g19" /><g
     id="g21" /><g
     id="g23" /><g
     id="g25" /><g
     id="g27" /><g
     id="g29" /><g
     id="g31" /><g
     id="g33" /><g
     id="g35" /><g
     id="g37" /><g
     id="g39" /></svg>