<?xml version="1.0" encoding="UTF-8" standalone="no"?>
<!-- Generator: Adobe Illustrator 16.0.0, SVG Export Plug-In . SVG Version: 6.00 Build 0)  -->

<svg
   xmlns:dc="http://purl.org/dc/elements/1.1/"
   xmlns:cc="http://creativecommons.org/ns#"
   xmlns:rdf="http://www.w3.org/1999/02/22-rdf-syntax-ns#"
   xmlns:svg="http://www.w3.org/2000/svg"
   xmlns="http://www.w3.org/2000/svg"
   xmlns:sodipodi="http://sodipodi.sourceforge.net/DTD/sodipodi-0.dtd"
   xmlns:inkscape="http://www.inkscape.org/namespaces/inkscape"
   version="1.1"
   id="Capa_1"
   x="0px"
   y="0px"
   width="457.508px"
   height="457.508px"
   viewBox="0 0 457.508 457.508"
   style="enable-background:new 0 0 457.508 457.508;"
   xml:space="preserve"
   inkscape:version="0.91 r13725"
   sodipodi:docname="user-default.svg"
   inkscape:export-filename="/media/sanke/src.ssd/Projects/SandBox/fr.sandbox/src/main/java/images/user-default.png"
   inkscape:export-xdpi="90"
   inkscape:export-ydpi="90"><metadata
     id="metadata45"><rdf:RDF><cc:Work
         rdf:about=""><dc:format>image/svg+xml</dc:format><dc:type
           rdf:resource="http://purl.org/dc/dcmitype/StillImage" /><dc:title /></cc:Work></rdf:RDF></metadata><defs
     id="defs43" /><sodipodi:namedview
     pagecolor="#ffffff"
     bordercolor="#666666"
     borderopacity="1"
     objecttolerance="10"
     gridtolerance="10"
     guidetolerance="10"
     inkscape:pageopacity="0"
     inkscape:pageshadow="2"
     inkscape:window-width="812"
     inkscape:window-height="398"
     id="namedview41"
     showgrid="false"
     inkscape:zoom="0.51583798"
     inkscape:cx="-717.86093"
     inkscape:cy="231.46166"
     inkscape:window-x="635"
     inkscape:window-y="338"
     inkscape:window-maximized="0"
     inkscape:current-layer="Capa_1" /><path
     inkscape:connector-curvature="0"
     id="path5"
     d="m 199.671,242.677 c 66.985,0 121.319,-54.353 121.319,-121.271 C 320.99,54.363 266.666,0 199.671,0 132.638,0 78.38,54.373 78.38,121.406 c 0,66.918 54.248,121.271 121.291,121.271 z" /><path
     d="M 302.77539 215.17773 C 277.41539 243.59673 240.65788 261.59375 199.67188 261.59375 C 158.71587 261.59375 121.96577 243.59519 96.634766 215.24219 C 96.602198 215.26069 96.569684 215.28223 96.537109 215.30078 C 96.531889 215.29493 96.526704 215.28905 96.521484 215.2832 C 86.739485 220.5892 76.624125 228.33363 71.078125 235.39062 C 60.770125 248.55762 52.698016 262.35808 46.291016 276.08008 C 46.432726 276.08409 46.573278 276.09306 46.714844 276.09766 C 35.533087 298.85541 25.752744 327.68745 23.310547 361.50195 C 22.411547 374.01995 28.369078 393.13564 38.830078 400.43164 C 58.682078 414.32664 101.50111 432.10156 190.66211 432.10156 C 192.16341 432.10156 193.59971 432.07531 195.07812 432.06641 C 199.50093 432.14953 203.9953 432.20703 208.63477 432.20703 C 297.79577 432.20703 340.6148 414.43211 360.4668 400.53711 C 370.9278 393.24111 376.88728 374.12542 375.98828 361.60742 C 373.53861 327.68948 363.70303 298.78611 352.47852 275.99609 C 352.65461 275.99019 352.82954 275.9796 353.00586 275.97461 C 346.59886 262.25261 338.5287 248.45216 328.2207 235.28516 C 322.6747 228.22816 312.55739 220.48373 302.77539 215.17773 z "
     id="path7" /><g
     id="g11" /><g
     id="g13" /><g
     id="g15" /><g
     id="g17" /><g
     id="g19" /><g
     id="g21" /><g
     id="g23" /><g
     id="g25" /><g
     id="g27" /><g
     id="g29" /><g
     id="g31" /><g
     id="g33" /><g
     id="g35" /><g
     id="g37" /><g
     id="g39" /></svg>